Coordinates
version=1
nRows=16
nColumns=22
inDegrees=yes

Units are S.I. units (second, meters, Newtons, ...)
If the header above contains a line with 'inDegrees', this indicates whether rotational values are in degrees (yes) or radians (no).

endheader
time	pelvis_tilt	pelvis_list	pelvis_rotation	pelvis_tx	pelvis_ty	pelvis_tz	hip_flexion_r	hip_adduction_r	hip_rotation_r	knee_angle_r	ankle_angle_r	subtalar_angle_r	hip_flexion_l	hip_adduction_l	hip_rotation_l	knee_angle_l	ankle_angle_l	subtalar_angle_l	lumbar_extension	lumbar_bending	lumbar_rotation
      0.01000000	     -0.77210048	      2.70721882	    174.95949963	      0.11839955	      1.01744214	      0.78929149	      5.30718296	      0.91331852	     -1.67507400	    -17.74910208	     10.89107843	     -2.67337744	      7.39598364	     -4.83484356	     -3.37905311	    -20.22479197	     11.86809427	      3.04901378	    -12.95624354	      4.51317294	      4.61117436
      0.02000000	     -0.62285480	      2.50982122	    174.77578062	      0.11841106	      1.01698832	      0.79137093	      6.00370420	      0.62924441	     -1.45689729	    -18.65847603	     11.02724779	     -3.15026464	      7.38812624	     -4.48568457	     -3.67298629	    -19.92599470	     11.86700525	      2.73933837	    -12.85603016	      4.39718131	      4.63108774
      0.03000000	     -0.47343717	      2.27181324	    174.57468285	      0.11845920	      1.01649175	      0.79372711	      6.79880419	      0.30619595	     -1.21276816	    -19.73165910	     11.20286106	     -3.60347932	      7.38593401	     -4.07552798	     -3.93963033	    -19.62405489	     11.85752271	      2.41786967	    -12.77104020	      4.24171123	      4.63968616
      0.04000000	     -0.32032787	      2.00847587	    174.36782296	      0.11853590	      1.01595213	      0.79620767	      7.66152535	     -0.02049325	     -0.94188926	    -20.91227139	     11.40845034	     -4.13193028	      7.42147040	     -3.63788788	     -4.17580216	    -19.37153992	     11.86863910	      2.11216800	    -12.69098068	      4.05457717	      4.62080735
      0.05000000	     -0.19078172	      1.73760868	    174.15299445	      0.11862532	      1.01544670	      0.79867057	      8.53202511	     -0.32096311	     -0.66148411	    -22.15077182	     11.66939271	     -4.66596364	      7.46114471	     -3.19897215	     -4.37788023	    -19.16568409	     11.86267437	      1.87390524	    -12.64177572	      3.84389031	      4.60520067
      0.06000000	     -0.09666088	      1.48261486	    173.94402214	      0.11870171	      1.01502881	      0.80102262	      9.35917665	     -0.56035584	     -0.39646810	    -23.38865382	     11.99685141	     -5.14631331	      7.48704733	     -2.78806963	     -4.55317372	    -18.99969804	     11.84252894	      1.70497376	    -12.63442605	      3.63148797	      4.58372351
      0.07000000	     -0.03702274	      1.25823214	    173.75393812	      0.11875826	      1.01472077	      0.80318611	     10.11439296	     -0.71137692	     -0.15618580	    -24.57954890	     12.40529644	     -5.52971017	      7.50099262	     -2.42369422	     -4.70430559	    -18.87960538	     11.81903270	      1.58440716	    -12.66259786	      3.42742084	      4.54689691
      0.08000000	     -0.01389797	      1.08394495	    173.59510213	      0.11877885	      1.01455492	      0.80513445	     10.76953563	     -0.74738230	      0.04841630	    -25.68470528	     12.90216666	     -5.74958215	      7.48241633	     -2.12475830	     -4.83684598	    -18.77504262	     11.78860102	      1.50050886	    -12.72685138	      3.25776308	      4.48585737
      0.09000000	     -0.04138276	      0.96439016	    173.47699396	      0.11875329	      1.01457648	      0.80685612	     11.28795696	     -0.65982735	      0.22356188	    -26.66447806	     13.45704904	     -5.77496217	      7.39939478	     -1.89023180	     -4.94140914	    -18.65699565	     11.73464174	      1.45252982	    -12.84153349	      3.12404159	      4.38611907
      0.10000000	     -0.04759446	      0.90842718	    173.40114545	      0.11869161	      1.01465850	      0.80836988	     11.75079024	     -0.43847584	      0.33586935	    -27.52009009	     14.02720741	     -5.57021237	      7.33362418	     -1.73947252	     -5.03236908	    -18.53677490	     11.69260275	      1.39783436	    -12.91976101	      3.05150145	      4.27289895
      0.11000000	     -0.05989483	      0.91278264	    173.38131866	      0.11857631	      1.01484546	      0.80971786	     12.11221115	     -0.09890135	      0.38320915	    -28.21588569	     14.56677420	     -5.05217476	      7.24657315	     -1.66100248	     -5.08907435	    -18.39641844	     11.65118188	      1.34363180	    -12.99209900	      3.03761273	      4.12272573
      0.12000000	     -0.08149569	      0.98622524	    173.42336963	      0.11837845	      1.01514129	      0.81093839	     12.34996319	      0.35418230	      0.35311026	    -28.71142664	     15.00003009	     -4.27953504	      7.12792351	     -1.66243739	     -5.10236888	    -18.22709015	     11.60228833	      1.29670137	    -13.05942179	      3.09756636	      3.93279426
      0.13000000	     -0.10789887	      1.08029348	    173.51846225	      0.11811921	      1.01548592	      0.81206467	     12.49161740	      0.85453585	      0.25216489	    -29.02440958	     15.29316217	     -3.37908612	      6.99376833	     -1.69173546	     -5.08604817	    -18.03902962	     11.56770968	      1.25799651	    -13.11510268	      3.17692637	      3.70608127
      0.14000000	     -0.13096140	      1.18101815	    173.65164243	      0.11778152	      1.01583955	      0.81310954	     12.55133744	      1.37370133	      0.09262612	    -29.15696957	     15.41133352	     -2.35442738	      6.85175912	     -1.73369133	     -5.03985898	    -17.83411858	     11.52252172	      1.22348384	    -13.14365920	      3.26142412	      3.46522946
      0.15000000	     -0.14836858	      1.25021845	    173.79200738	      0.11737477	      1.01615960	      0.81405777	     12.54867186	      1.86235569	     -0.08227796	    -29.12914955	     15.43076037	     -1.23586680	      6.69506826	     -1.74797913	     -4.99260390	    -17.59011027	     11.45239331	      1.19096159	    -13.14318462	      3.30304772	      3.23981502
      0.16000000	     -0.16434232	      1.30193830	    173.96842458	      0.11689043	      1.01643594	      0.81498234	     12.47062185	      2.30718145	     -0.33239120	    -28.93019133	     15.28595413	     -0.20739160	      6.53139958	     -1.74544688	     -4.91888981	    -17.33002325	     11.40042993	      1.16749935	    -13.12124860	      3.33046321	      2.98664602
